<svg width="1600" height="1200" viewBox="0 0 1600 1200" fill="none" xmlns="http://www.w3.org/2000/svg">
<rect width="1600" height="1200" fill="#EFF1F3"/>
<path fill-rule="evenodd" clip-rule="evenodd" d="M742 553.737C742.022 550.58 744.584 548.025 747.754 548H852.246C855.425 548 858 550.571 858 553.737V646.263C857.978 649.42 855.416 651.975 852.246 652H747.754C744.575 651.997 742 649.429 742 646.263V553.737ZM846.401 559.556H753.601V640.445L807.494 586.746C809.759 584.49 813.431 584.49 815.696 586.746L846.401 617.391V559.556ZM765.199 582.666C765.199 589.048 770.393 594.222 776.799 594.222C783.206 594.222 788.399 589.048 788.399 582.666C788.399 576.284 783.206 571.111 776.799 571.111C770.393 571.111 765.199 576.284 765.199 582.666Z" fill="#DADEE2"/>
</svg>
